<?xml version="1.0" encoding="utf-8"?>
<!-- Generator: Adobe Illustrator 18.1.1, SVG Export Plug-In . SVG Version: 6.00 Build 0)  -->
<svg version="1.1" id="Layer_1" xmlns="http://www.w3.org/2000/svg" xmlns:xlink="http://www.w3.org/1999/xlink" x="0px" y="0px"
	 viewBox="3.8 117.2 604.4 557.6" enable-background="new 3.8 117.2 604.4 557.6" xml:space="preserve">
<g id="Layer_3">
</g>
<g id="laughaholic">
</g>
<g id="nail-biter">
</g>
<g id="drama">
</g>
<g id="indie">
</g>
<g id="stunt_double">
</g>
<g id="believer">
</g>
<g id="mentor">
	<g>
		<g>
			<path fill="#1A8EE5" d="M597.9,674.8H14.1c-5.7,0-10.3-4.6-10.3-10.3V251.3c0-31.6,25.7-57.3,57.3-57.3h489.7
				c31.6,0,57.3,25.7,57.3,57.3v413.1C608.2,670.2,603.6,674.8,597.9,674.8z M24.4,654.2h563.1V251.3c0-20.2-16.5-36.7-36.7-36.7
				H61.2c-20.2,0-36.7,16.5-36.7,36.7C24.4,251.3,24.4,654.2,24.4,654.2z"/>
		</g>
		<g>
			<path fill="#1A8EE5" d="M301.9,432c-96.8,0-223.3-12.1-276.5-69.5C2.7,338,3.7,316.2,3.9,313.8l20.5,1.6l0-0.2
				c0,0.6-0.5,15.9,17.1,34.3c27,28.2,94.1,61.8,260.3,61.8c81.3,0,190.7-8.6,250.4-49.8c34.1-23.5,35.2-46.2,35.3-47.1l10.3,0.2
				h10.3c0,1.3-0.5,32.4-41.3,61.9C516,413.3,426.9,432,301.9,432z"/>
		</g>
		<g>
			<path fill="#1A8EE5" d="M407.8,214.7H196c-5.7,0-10.3-4.6-10.3-10.3v-39.7c0-26.1,21.3-47.4,47.4-47.4h137.5
				c26.1,0,47.4,21.3,47.4,47.4v39.7C418.1,210,413.5,214.7,407.8,214.7z M206.3,194h191.2v-29.4c0-14.8-12-26.8-26.8-26.8H233.2
				c-14.8,0-26.8,12-26.8,26.8V194z"/>
		</g>
		<g>
			<path fill="#1A8EE5" d="M375.7,493.8H228.2c-5.7,0-10.3-4.6-10.3-10.3c0-5.7,4.6-10.3,10.3-10.3h147.5c5.7,0,10.3,4.6,10.3,10.3
				C386,489.2,381.3,493.8,375.7,493.8z"/>
		</g>
	</g>
</g>
</svg>
