<?xml version="1.0" encoding="utf-8"?>
<!-- Generator: Adobe Illustrator 18.1.1, SVG Export Plug-In . SVG Version: 6.00 Build 0)  -->
<svg version="1.1" id="Layer_1" xmlns="http://www.w3.org/2000/svg" xmlns:xlink="http://www.w3.org/1999/xlink" x="0px" y="0px"
	 viewBox="2.4 111 607.3 568.6" enable-background="new 2.4 111 607.3 568.6" xml:space="preserve">
<g id="Layer_3">
</g>
<g id="laughaholic">
</g>
<g id="nail-biter">
</g>
<g id="drama">
</g>
<g id="indie">
</g>
<g id="stunt_double">
</g>
<g id="believer">
</g>
<g id="mentor">
	<g>
		<g>
			<g>
				<g id="XMLID_24_">
					<g>
						<g>
							<path fill="#0EE0BD" d="M65.6,679.6c-13.5,0-27.7-0.7-42.4-2.1c-10.9-1-19.7-9.7-20.7-20.7c-1-11,5.9-21.2,16.4-24.3
								c17.7-5.2,29.4-30.8,41.9-57.9c9.4-20.5,19.1-41.6,33.3-58c16.5-19.1,36.8-28.8,60.2-28.8c2.7,0,5.4,0.1,8.2,0.4
								c8.6,0.8,17.7,2.9,27.1,6.2c17.8,6.3,32.4,19.2,41,36.3c8.4,16.5,10.8,36,6.6,54.9c-4.1,18.5-16,44.9-49.9,65.7
								C156.8,670.1,115.9,679.6,65.6,679.6z M154.2,507.8c-17.6,0-32.4,7.2-45.1,21.9C96.8,544,87.7,563.8,79,582.9
								c-14.5,31.4-28.1,61.1-54.5,68.8c-1.4,0.4-2.3,1.7-2.1,3.2c0.1,1.4,1.3,2.5,2.7,2.7c14.1,1.3,27.7,2,40.6,2
								c46.5,0,83.9-8.5,111.2-25.3c27.8-17.1,37.6-38.2,40.8-53c3.2-14.4,1.4-29.1-4.9-41.6c-6.3-12.5-16.9-21.9-29.9-26.5
								c-7.9-2.8-15.4-4.5-22.4-5.2C158.4,507.9,156.3,507.8,154.2,507.8z"/>
						</g>
						<g>
							<path fill="#0EE0BD" d="M283.5,551.6c-1.9,0-3.8-0.2-5.6-0.7c-18.5-5-23.1-20.7-25.6-29.2l-0.5-1.7
								c-3.3-11-4.7-15.5-17.8-29.9c-13.8-15.2-36.2-20.1-37.6-20.3c-9.7-1.5-17.5-8.4-20.5-18.2c-2.9-9.5-0.5-19.8,6.1-27.1
								c111.8-122.3,279.9-244.8,370.1-307c7.7-5.3,16.7-7.5,25.4-6.3c13.1,1.8,24.4,11.1,29.4,24.2c4.8,12.5,3.1,26.7-4.5,38.1
								C493.2,335.8,352.3,491.3,311.8,535l-0.4,0.4C306.9,540.3,296.5,551.6,283.5,551.6z M572.7,131c-3.2,0-6.3,1-9.3,3.1
								c-89.5,61.7-256.3,183.1-366.7,304c-1.9,2.1-2.5,5-1.7,7.8c0.7,2.4,2.3,3.9,4.3,4.2c0.2,0,30.1,5.5,49.4,26.6
								c15.4,16.9,18,24.1,22.1,37.5l0.6,1.8c2.5,8.3,4.3,13.5,11.7,15.5c0.1,0,0.3,0,0.4,0c1.9,0,5.7-1.7,13.2-9.7l0.4-0.5
								c28.7-31,177.5-193.8,288.8-359.1c4-5.9,4.9-13.3,2.4-19.7c-2.4-6.3-7.6-10.7-13.5-11.5C574.1,131,573.4,131,572.7,131z"/>
						</g>
					</g>
				</g>
			</g>
		</g>
		<g>
			<path fill="#0EE0BD" d="M347.4,466.3c-2.4-32-18.7-57.5-48.4-75.7c-23.1-14.1-45.9-18.5-46.1-18.5l3.6-19.7
				c1.1,0.2,26.2,4.9,52.4,20.8c35.5,21.5,55.7,53.2,58.5,91.7L347.4,466.3z"/>
		</g>
	</g>
</g>
</svg>
