<?xml version="1.0" encoding="utf-8"?>
<!-- Generator: Adobe Illustrator 18.1.1, SVG Export Plug-In . SVG Version: 6.00 Build 0)  -->
<svg version="1.1" id="Layer_1" xmlns="http://www.w3.org/2000/svg" xmlns:xlink="http://www.w3.org/1999/xlink" x="0px" y="0px"
	 viewBox="3 91.8 606.1 608.4" enable-background="new 3 91.8 606.1 608.4" xml:space="preserve">
<g id="Layer_3">
</g>
<g id="laughaholic">
</g>
<g id="nail-biter">
</g>
<g id="drama">
</g>
<g id="indie">
</g>
<g id="stunt_double">
</g>
<g id="believer">
</g>
<g id="mentor">
	<g>
		<path fill="#ED4343" d="M194.7,436.4c-9.6,0-23.4-4.3-34.5-24.7c-5.1-9.4-7.6-18.7-8.3-21.2c-13.4-38.4-4.8-102.3-4.4-105
			c0.1-0.6,0.2-1.2,0.4-1.8c26.6-83.3,90.2-109.5,136.6-128.5c7.9-3.3,15.4-6.3,21.9-9.4c42.1-19.9,82.8-51.4,83.2-51.7
			c3.7-2.9,8.9-3,12.7-0.3l199.8,140.8c3.9,2.7,5.5,7.6,4,12.1l-22,65.9c-1.6,4.7-6.2,7.7-11.1,7.3c-2.3-0.2-233.8-22-252-23.5
			c-1.9-0.1-3.8-0.2-5.8-0.2c-18.6,0-44.1,6.8-59.1,21.9c-7.5,7.5-11.2,16.2-11.2,25.7c0.2,33.7-3.6,79.8-39.9,91
			C201.6,435.8,198.1,436.4,194.7,436.4z M168.6,289.3c-1,7.7-7.4,63.3,3.7,94.6c0.1,0.4,0.2,0.7,0.3,1.1c2.3,9.8,10.8,30,22.1,30
			c1.3,0,2.7-0.2,4.1-0.7c17-5.2,25.1-28.2,24.8-70.4c-0.1-15.2,5.9-29.4,17.4-40.9c17-17.2,46.2-28.2,74.2-28.2
			c2.6,0,5.1,0.1,7.5,0.3c16.5,1.3,201.1,18.7,243.8,22.7l16.8-50.3L396.4,115.7c-13.4,9.9-46.1,33-80.8,49.4
			c-7,3.3-14.7,6.5-22.9,9.8C248,193.3,192.4,216.2,168.6,289.3z"/>
		<path fill="#ED4343" d="M435.9,619c-5.3,0-10.8-0.3-16.5-0.8c-5.9-0.5-10.2-5.7-9.7-11.6c0.5-5.9,5.7-10.2,11.6-9.7
			c29.9,2.7,52.8-2.6,68.1-15.9c18.5-16.1,19.8-39,19.9-39.2c0.2-4.4,3.1-8.2,7.2-9.6c43.8-15,35.3-64.2,34.9-66.3
			c-0.8-4.1,1-8.3,4.4-10.7c29-20.3,15.6-59.1,15.1-60.8c-1.3-3.7-0.5-7.8,2.1-10.7c11-12.4,15.9-24.5,14.5-35.9
			c-2.2-17.8-19.2-29.5-19.4-29.7c-4.9-3.3-6.2-9.9-2.9-14.8c3.3-4.9,9.9-6.2,14.8-2.9c1,0.7,25.1,17,28.7,44.5
			c2.1,16.2-3.2,32.4-15.8,48.3c5.2,19.8,5.9,53.5-19.5,75.4c2.4,24.2-4.2,64.2-43.6,81.4c-1.9,10.7-7.8,31-26,47
			C487.1,611.6,464.3,619,435.9,619z"/>
		<path fill="#ED4343" d="M91.6,633.6c-4.6,0-8.6-2.9-10.1-7.3L3.5,396c-1.5-4.5,0.1-9.4,4-12.1l143.8-101.6
			c4.8-3.4,11.5-2.3,14.9,2.6c3.4,4.8,2.3,11.5-2.6,14.9l-137.2,97L99.2,612l51.1-1.5c5.9-0.2,10.8,4.5,11,10.4
			c0.2,5.9-4.5,10.8-10.4,11l-59,1.7C91.8,633.6,91.7,633.6,91.6,633.6z"/>
		<path fill="#ED4343" d="M263.1,700.2c-19.8,0-37.2-13.4-42.1-32.6l-18.1-69.8c-6-23.3,8-47.1,31.2-53.1l0.6-0.2
			c3.6-0.9,7.3-1.4,10.9-1.4c19.8,0,37.2,13.4,42.1,32.6l18.1,69.8c6,23.2-8,47.1-31.2,53.1l-0.6,0.2
			C270.5,699.7,266.8,700.2,263.1,700.2z M245.7,564.5c-1.9,0-3.7,0.2-5.6,0.7l-0.6,0.2c-11.8,3.1-19,15.2-15.9,27l18.1,69.8
			c2.5,9.8,11.4,16.6,21.5,16.6c1.9,0,3.7-0.2,5.6-0.7l0.6-0.2c11.8-3.1,19-15.2,15.9-27l-18.1-69.8
			C264.7,571.3,255.8,564.5,245.7,564.5z"/>
		<path fill="#ED4343" d="M329.6,692c-19.2,0-35.7-12.2-40.3-29.7L273,599.4c-5.6-21.5,8.6-43.9,31.6-49.8l0.6-0.2
			c3.8-1,7.6-1.5,11.5-1.5c19.2,0,35.7,12.2,40.3,29.7l16.3,62.9c5.6,21.5-8.6,43.9-31.6,49.8l-0.6,0.2
			C337.3,691.5,333.5,692,329.6,692z M316.7,569.3c-2,0-4.1,0.3-6.1,0.8l-0.6,0.2c-11.6,3-18.9,13.7-16.2,23.8L310,657
			c2.1,8.1,10.1,13.7,19.6,13.7c2,0,4.1-0.3,6.1-0.8l0.6-0.2c11.6-3,18.8-13.7,16.2-23.8L336.3,583
			C334.2,575,326.2,569.3,316.7,569.3z"/>
		<path fill="#ED4343" d="M396.4,681.8c-18.1,0-33.6-11.3-37.8-27.5l-14.7-56.9c-5.2-20,8.3-40.9,30.1-46.5l0.6-0.2
			c3.6-0.9,7.4-1.4,11.1-1.4c18.1,0,33.6,11.3,37.8,27.5l14.7,56.9c2.6,9.9,0.7,20.3-5.3,29.2c-5.7,8.5-14.5,14.7-24.9,17.3
			l-0.6,0.1C403.8,681.3,400.1,681.8,396.4,681.8z M385.7,570.7c-1.9,0-3.9,0.2-5.8,0.7l-0.6,0.2c-10.4,2.7-17,11.9-14.8,20.5
			l14.7,56.9c1.8,6.7,8.8,11.4,17.1,11.4c1.9,0,3.9-0.2,5.8-0.7l0.6-0.1c5.3-1.4,9.7-4.4,12.5-8.6c2.5-3.8,3.4-8,2.3-11.9
			l-14.7-56.9C401.1,575.4,394,570.7,385.7,570.7z"/>
		<path fill="#ED4343" d="M191.8,699.9c-8.9,0-17.3-2.5-24.2-7.1c-7.4-4.9-12.6-12.2-14.8-20.4l-15-58c-5.3-20.3,9.2-41.6,32.2-47.6
			l0.6-0.2c4-1,8.1-1.6,12.2-1.6c8.9,0,17.3,2.5,24.2,7.1c7.4,4.9,12.6,12.2,14.8,20.4l15,58c2.6,10.2,0.5,20.8-6,29.9
			c-6.1,8.6-15.4,14.8-26.2,17.6l-0.6,0.2C200,699.3,195.9,699.9,191.8,699.9z M182.8,586.4c-2.3,0-4.6,0.3-6.8,0.9l-0.6,0.2
			c-11.4,2.9-19.1,12.8-16.8,21.5l15,58c1.8,6.8,9.3,11.5,18.3,11.5c2.3,0,4.6-0.3,6.8-0.9l0.6-0.2c5.9-1.5,11-4.8,14.1-9.3
			c2.8-3.9,3.7-8.2,2.7-12.2l-15-58C199.4,591.2,191.8,586.4,182.8,586.4z"/>
		<path fill="#ED4343" d="M467.3,388.4"/>
		<path fill="#ED4343" d="M580.9,390.8"/>
		<path fill="#ED4343" d="M580.9,401.4c-0.1,0-0.3,0-0.4,0L434.4,396c-5.9-0.2-10.5-5.2-10.3-11.1c0.2-5.9,5.1-10.5,11.1-10.3
			l146.1,5.4c5.9,0.2,10.5,5.2,10.3,11.1C591.4,396.9,586.6,401.4,580.9,401.4z"/>
		<path fill="#ED4343" d="M561.9,474.6c-0.1,0-0.2,0-0.3,0l-112.5-2.8c-5.9-0.1-10.6-5-10.4-10.9c0.1-5.9,5.1-10.5,10.9-10.4
			l112.5,2.8c5.9,0.1,10.6,5,10.4,10.9C572.5,470,567.7,474.6,561.9,474.6z"/>
		<path fill="#ED4343" d="M520,552.9c-0.1,0-0.2,0-0.3,0l-73.2-2c-5.9-0.2-10.5-5.1-10.4-11c0.2-5.9,5.1-10.5,11-10.4l73.2,2
			c5.9,0.2,10.5,5.1,10.4,11C530.5,548.3,525.8,552.9,520,552.9z"/>
	</g>
</g>
</svg>
