<?xml version="1.0" encoding="utf-8"?>
<!-- Generator: Adobe Illustrator 18.1.1, SVG Export Plug-In . SVG Version: 6.00 Build 0)  -->
<svg version="1.1" id="Layer_1" xmlns="http://www.w3.org/2000/svg" xmlns:xlink="http://www.w3.org/1999/xlink" x="0px" y="0px"
	 viewBox="7.4 128.3 597.2 535.4" enable-background="new 7.4 128.3 597.2 535.4" xml:space="preserve">
<g id="Layer_3">
</g>
<g id="laughaholic">
</g>
<g id="nail-biter">
</g>
<g id="drama">
</g>
<g id="indie">
</g>
<g id="stunt_double">
</g>
<g id="believer">
</g>
<g id="mentor">
	<g>
		<g>
			<path fill="#F7D00F" d="M555.6,663.7H56.4c-27,0-49-21.9-49-48.9V207.1c0-27,22-48.9,49-48.9h499.1c27,0,49,21.9,49,48.9v407.7
				C604.6,641.8,582.6,663.7,555.6,663.7z M56.4,177.9c-16.2,0-29.3,13.1-29.3,29.2v407.7c0,16.1,13.2,29.2,29.3,29.2h499.1
				c16.2,0,29.3-13.1,29.3-29.2V207.1c0-16.1-13.2-29.2-29.3-29.2L56.4,177.9L56.4,177.9z"/>
		</g>
		<g>
			<rect x="17.2" y="279.4" fill="#F7D00F" width="577.5" height="19.7"/>
		</g>
		<g>
			<path fill="#F7D00F" d="M141.5,237.8c-5.4,0-9.9-4.4-9.9-9.9v-89.8c0-5.4,4.4-9.9,9.9-9.9s9.9,4.4,9.9,9.9v89.8
				C151.4,233.4,147,237.8,141.5,237.8z"/>
		</g>
		<g>
			<path fill="#F7D00F" d="M474.4,237.8c-5.4,0-9.9-4.4-9.9-9.9v-89.8c0-5.4,4.4-9.9,9.9-9.9c5.4,0,9.9,4.4,9.9,9.9v89.8
				C484.3,233.4,479.8,237.8,474.4,237.8z"/>
		</g>
		<g>
			<path fill="#F7D00F" d="M355,572.9h-95.3c-5.4,0-9.9-4.4-9.9-9.9s4.4-9.9,9.9-9.9h85.4V385.1h-85.4c-5.4,0-9.9-4.4-9.9-9.9
				c0-5.4,4.4-9.9,9.9-9.9H355c5.4,0,9.9,4.4,9.9,9.9V563C364.9,568.4,360.5,572.9,355,572.9z"/>
		</g>
		<g>
			<path fill="#F7D00F" d="M355,479.8h-63c-5.4,0-9.9-4.4-9.9-9.9c0-5.4,4.4-9.9,9.9-9.9h63c5.4,0,9.9,4.4,9.9,9.9
				C364.9,475.4,360.5,479.8,355,479.8z"/>
		</g>
	</g>
</g>
</svg>
