<?xml version="1.0" encoding="utf-8"?>
<!-- Generator: Adobe Illustrator 18.1.1, SVG Export Plug-In . SVG Version: 6.00 Build 0)  -->
<svg version="1.1" id="Layer_1" xmlns="http://www.w3.org/2000/svg" xmlns:xlink="http://www.w3.org/1999/xlink" x="0px" y="0px"
	 viewBox="5.9 132.9 600.2 526.2" enable-background="new 5.9 132.9 600.2 526.2" xml:space="preserve">
<g id="Layer_3">
</g>
<g id="laughaholic">
</g>
<g id="nail-biter">
</g>
<g id="drama">
</g>
<g id="indie">
</g>
<g id="stunt_double">
</g>
<g id="believer">
</g>
<g id="mentor">
	<g>
		<g>
			<path fill="#E87331" d="M471.5,659.1c-9.1,0-17.6-4.1-23.3-11.3L193.6,320.4c-0.1-0.1-0.1-0.2-0.2-0.3
				c-0.3-0.4-7.7-10.9-17.8-10.9c-3.7,0-7.7,1.5-11.8,4.3L148,328.4c-3.7,3.5-8.6,5.4-13.7,5.4l-18.2,0c-0.2,0-0.4,0.1-0.4,0.3
				l-1.2,16.8c-0.4,5.3-2.8,10.2-6.9,13.7l-24.4,21.1c-3.6,3.1-8.3,4.9-13.1,4.9c-6.1,0-11.9-2.8-15.7-7.6l-44.1-55.7
				c-6.5-8.3-5.5-20.2,2.3-27.3L32,282.6c4-3.6,9.4-5.5,14.8-5.1l19.3,1.4l0,0c0.2,0,0.4-0.1,0.4-0.3l1.4-18.9
				c0.4-5.3,2.8-10.1,6.7-13.6l120.2-105.7c3.6-3.2,8.3-5,13.1-5l106.4-0.3c8.4,0,15.8,5.1,18.8,12.9c3,7.8,0.9,16.5-5.4,22.1
				L261,229.3c-3.7,5.1-10.7,18.8,2.9,34.5c18.3,21.1,220.1,227.8,281.5,290.6c12.8,13.1,12.5,27.8-1,42.4c-0.1,0.1-0.1,0.1-0.2,0.2
				l-52.6,54.2c-0.2,0.2-0.4,0.4-0.6,0.6C485.6,656.5,478.7,659.1,471.5,659.1z M209.4,308.7l0.3,0.4l254,326.6
				c1.9,2.4,4.7,3.7,7.9,3.7c1.6,0,4-0.4,6.3-2.2l52.2-53.7c7.9-8.6,5.4-11.2,1.3-15.3c-61.5-62.9-263.7-270-282.3-291.5
				c-18.6-21.5-14.2-44.4-4-58.7c0.8-1.2,1.8-2.3,2.9-3.3l66.6-59.3c0.1-0.1,0.1-0.2,0.1-0.2c0-0.1-0.1-0.4-0.2-0.5l0,0
				c0,0-0.1,0-0.2,0L208,155c-0.1,0-0.2,0-0.2,0.1L87.6,260.8c-0.1,0.1-0.1,0.2-0.1,0.2L86.1,280c-0.8,10.9-10.4,19.3-21.4,18.5
				l-19.3-1.4c-0.1,0-0.2,0-0.3,0.1l-19.5,17.5c-0.1,0.1-0.2,0.4,0,0.5l44.1,55.7c0.1,0.1,0.4,0.2,0.5,0l24.4-21.1
				c0.1-0.1,0.1-0.2,0.1-0.2l1.2-16.8c0.7-10.4,9.5-18.6,20-18.6l18.2,0c0.1,0,0.2,0,0.3-0.1l15.7-14.8c0.7-0.7,1.5-1.3,2.3-1.9
				c7.5-5.2,15.2-7.9,23.1-7.9C194.7,289.6,206.9,305.2,209.4,308.7z"/>
		</g>
		<g>
			<path fill="#E87331" d="M186.5,659.1L186.5,659.1c-7.6,0-14.8-2.8-20.3-8c-0.2-0.1-0.3-0.3-0.5-0.5l-52.4-55.8
				c-0.2-0.2-0.3-0.3-0.5-0.5c-12-14.8-11.8-30.2,0.6-42.1l155.3-149.5c2-1.9,4.7-2.9,7.5-2.7c2.8,0.2,5.3,1.6,7.1,3.8l56.5,72.7
				c2.8,3.6,2.8,8.7-0.1,12.2L209.3,648.4C203.6,655.2,195.3,659.1,186.5,659.1z M179.8,636.9c1.8,1.6,4.2,2.5,6.7,2.5l0,0
				c3,0,5.8-1.3,7.7-3.6l125.4-153.5l-45-57.9L127.1,566.4c-3.5,3.4-5.9,6.9,0.8,15.3L179.8,636.9z"/>
		</g>
		<g>
			<path fill="#E87331" d="M391.1,420.1c-2.6,0-5.2-1.1-7-3l-56-57.7c-1.8-1.9-2.8-4.4-2.8-7c0-2.6,1.1-5.1,3-6.9l42.5-40.9
				c0.1-0.1,0.1-0.2,0.1-0.3c-5.5-19.1-20.5-84.3,15.5-123.2c27.5-29.7,67-48.1,103.2-48.1c12.6,0,24.2,2.3,34.5,6.7
				c6,2.6,10.3,8,11.6,14.5c1.2,6.6-0.9,13.3-5.6,18l-65.7,65.1c-0.1,0.1-0.1,0.2-0.1,0.3l0.2,33.9c0,0.2,0.2,0.4,0.4,0.4l35.3-2.2
				c0.1,0,0.2,0,0.2-0.1l65.3-68.5c3.8-4,8.9-6.2,14.5-6.2c8.8,0,16.5,5.6,19.1,14c8.7,28.1,16.8,82.1-27.6,128.9
				c-24.9,26.3-57,40.2-92.8,40.2c0,0,0,0,0,0c-18.3,0-33.5-3.5-42.9-6.5c-0.2,0-0.3,0-0.4,0.1l-36.8,45c-1.8,2.2-4.4,3.5-7.2,3.6
				C391.4,420.1,391.3,420.1,391.1,420.1z M349,352.8l41.5,42.7l29.9-36.6c3.9-4.6,9.5-7.2,15.4-7.2c2,0,4.1,0.3,6,0.9
				c6.7,2.1,20.4,5.6,37.1,5.6c0,0,0,0,0,0c30.7,0,57.2-11.4,78.6-34c37.5-39.5,30.6-85.7,23.1-109.6c0-0.1-0.1-0.2-0.4-0.2
				c-0.1,0-0.1,0-0.2,0.1L514.6,283c-3.5,3.7-8.2,5.9-13.2,6.2l-35.2,2.2c-11.5,0.7-21.2-8.5-21.2-19.8l-0.2-33.9
				c0-5.3,2.1-10.6,5.9-14.3l65.7-65.1c0.2-0.2,0.1-0.5,0.1-0.5c-7.9-3.4-16.8-5.1-26.7-5.1c-30.4,0-65.2,16.4-88.8,41.8
				c-29,31.3-15.8,87.9-11,104.5c2,7.1,0,14.7-5.4,19.9L349,352.8z"/>
		</g>
		<g>
			<path fill="#E87331" d="M226.3,356.3c-2.7,0-5.4-1.1-7.4-3.3c-3.6-4.1-3.2-10.3,0.9-13.9l55.7-49c4.1-3.6,10.3-3.2,13.9,0.9
				c3.6,4.1,3.2,10.3-0.9,13.9l-55.7,49C230.9,355.5,228.6,356.3,226.3,356.3z"/>
		</g>
	</g>
</g>
</svg>
