<?xml version="1.0" encoding="utf-8"?>
<!-- Generator: Adobe Illustrator 18.1.1, SVG Export Plug-In . SVG Version: 6.00 Build 0)  -->
<svg version="1.1" id="Layer_1" xmlns="http://www.w3.org/2000/svg" xmlns:xlink="http://www.w3.org/1999/xlink" x="0px" y="0px"
	 viewBox="4 121.5 604 549" enable-background="new 4 121.5 604 549" xml:space="preserve">
<g id="Layer_3">
</g>
<g id="laughaholic">
</g>
<g id="nail-biter">
</g>
<g id="drama">
</g>
<g id="indie">
</g>
<g id="stunt_double">
</g>
<g id="believer">
</g>
<g id="mentor">
	<g>
		<g>
			<path fill="#17AEE7" d="M180.6,612.3H85.5c-14.5,0-25.9-9.3-25.9-21.1V359.1c0-11.8,11.4-21.1,25.9-21.1h95.1
				c14.5,0,25.9,9.3,25.9,21.1v232.1C206.5,603.1,195.1,612.3,180.6,612.3z M79.7,590.5c0.7,0.6,2.7,1.7,5.8,1.7h95.1
				c3.1,0,5.1-1.1,5.8-1.7V359.8c-0.7-0.6-2.7-1.7-5.8-1.7H85.5c-3.1,0-5.1,1.1-5.8,1.7V590.5z"/>
		</g>
		<g>
			<path fill="#17AEE7" d="M357.5,612.3h-95.1c-14.3,0-25.9-11.2-25.9-25V301c0-13.8,11.6-25,25.9-25h95.1c14.3,0,25.9,11.2,25.9,25
				v286.4C383.4,601.1,371.8,612.3,357.5,612.3z M262.4,296.1c-3.2,0-5.8,2.2-5.8,4.9v286.4c0,2.7,2.6,4.9,5.8,4.9h95.1
				c3.2,0,5.8-2.2,5.8-4.9V301c0-2.7-2.6-4.9-5.8-4.9H262.4z"/>
		</g>
		<g>
			<path fill="#17AEE7" d="M534.4,612.3h-95.1c-14.3,0-25.9-11.2-25.9-25V175.6c0-13.8,11.6-25,25.9-25h95.1
				c14.3,0,25.9,11.2,25.9,25v411.7C560.3,601.1,548.7,612.3,534.4,612.3z M439.3,170.8c-3.2,0-5.8,2.2-5.8,4.9v411.7
				c0,2.7,2.6,4.9,5.8,4.9h95.1c3.2,0,5.8-2.2,5.8-4.9V175.6c0-2.7-2.6-4.9-5.8-4.9L439.3,170.8L439.3,170.8z"/>
		</g>
		<g>
			<path fill="#17AEE7" d="M597.9,670.5H14.1c-5.6,0-10-4.5-10-10V131.6c0-5.6,4.5-10,10-10c5.6,0,10,4.5,10,10v518.8h573.8
				c5.6,0,10,4.5,10,10C608,666,603.5,670.5,597.9,670.5z"/>
		</g>
	</g>
</g>
</svg>
