<?xml version="1.0" encoding="utf-8"?>
<!-- Generator: Adobe Illustrator 18.1.1, SVG Export Plug-In . SVG Version: 6.00 Build 0)  -->
<svg version="1.1" id="Layer_1" xmlns="http://www.w3.org/2000/svg" xmlns:xlink="http://www.w3.org/1999/xlink" x="0px" y="0px"
	 viewBox="5.1 182.5 601.8 427" enable-background="new 5.1 182.5 601.8 427" xml:space="preserve">
<g id="Layer_3">
</g>
<g id="laughaholic">
</g>
<g id="nail-biter">
</g>
<g id="drama">
</g>
<g id="indie">
</g>
<g id="stunt_double">
</g>
<g id="believer">
</g>
<g id="mentor">
	<g>
		<g>
			<path fill="#38C14C" d="M500.5,609.5L500.5,609.5l-393.5-0.2c-9.1,0-17.3-4.7-21.8-12.6c-4.5-7.8-4.6-17.2-0.1-25l196.3-376.4
				l0.1-0.2c4.6-7.9,12.7-12.6,21.8-12.6c8.9,0,17,4.5,21.6,12.1l0.3,0.5l197,376.3c4.6,7.8,4.7,17.2,0.2,25.2
				C518,604.7,509.8,609.5,500.5,609.5z M298.7,204.8L102.4,581.1l-0.1,0.2c-1.4,2.5-0.5,4.7,0,5.5c0.5,0.8,1.9,2.8,4.8,2.8
				l393.5,0.2c2.9,0,4.3-2,4.8-2.8c0.5-0.8,1.4-3.1-0.1-5.6l-0.3-0.5L308,204.7c-1.5-2.2-3.7-2.4-4.6-2.4
				C302.5,202.2,300.1,202.5,298.7,204.8z"/>
		</g>
		<g>
			<path fill="#38C14C" d="M99.8,586.2l-69.4-0.1c-9.1,0-17.3-4.7-21.8-12.6c-4.6-7.9-4.6-17.3,0-25.2l162.9-281.8
				c4.6-7.9,12.7-12.6,21.8-12.6c8.7,0,16.6,4.4,21.3,11.7l30.9,41.3L99.8,586.2z M193.2,273.6c-1,0-3.3,0.3-4.8,2.8L25.6,558.2
				c-1.4,2.5-0.5,4.7,0,5.5c0.5,0.8,1.9,2.8,4.8,2.8l57.4,0.1l134.4-257.8L198,276.3C196.5,273.9,194.2,273.6,193.2,273.6z"/>
		</g>
		<g>
			<path fill="#38C14C" d="M581.6,588.5H510L387.7,357l25.6-47.6c4.6-7.9,12.7-12.6,21.8-12.6c8.9,0,17,4.5,21.6,12.1l146.4,241.3
				c4.8,7.9,4.9,17.4,0.4,25.5C599.1,583.7,590.9,588.5,581.6,588.5z M521.9,568.8h59.7c2.9,0,4.3-2,4.8-2.8s1.4-3.1-0.1-5.6
				L439.9,319.1c-1.5-2.4-3.8-2.7-4.7-2.7c-0.9,0-3.3,0.3-4.7,2.7l-20.4,37.9L521.9,568.8z"/>
		</g>
		<g>
			<path fill="#38C14C" d="M302.7,425.6c-3.8,0-7.3-2.2-8.9-5.7l-33.5-71.6l-73.2,69.2l-13.5-14.3l83.1-78.6
				c2.3-2.2,5.5-3.1,8.6-2.5s5.7,2.6,7.1,5.5l29.6,63.2l24.8-62.7c1.2-3,3.7-5.2,6.8-5.9c3.1-0.8,6.4,0,8.8,2.1l90.4,77.7l-12.9,15
				L340,348.3l-28.1,71.1c-1.4,3.7-4.9,6.1-8.9,6.2C302.9,425.5,302.8,425.6,302.7,425.6z"/>
		</g>
	</g>
</g>
</svg>
