<?xml version="1.0" encoding="utf-8"?>
<!-- Generator: Adobe Illustrator 18.1.1, SVG Export Plug-In . SVG Version: 6.00 Build 0)  -->
<svg version="1.1" id="Layer_1" xmlns="http://www.w3.org/2000/svg" xmlns:xlink="http://www.w3.org/1999/xlink" x="0px" y="0px"
	 viewBox="3.7 108.3 604.7 575.5" enable-background="new 3.7 108.3 604.7 575.5" xml:space="preserve">
<g id="Layer_3">
</g>
<g id="laughaholic">
</g>
<g id="nail-biter">
</g>
<g id="drama">
</g>
<g id="indie">
</g>
<g id="stunt_double">
</g>
<g id="believer">
</g>
<g id="mentor">
	<g>
		<g>
			<g>
				<g>
					<path fill="#A75BD8" d="M112.3,532.1c-3.4,0-6.7-1.7-8.6-4.9l-57.9-97.1c-1.4-2.3-1.8-5-1.1-7.6c0.7-2.6,2.3-4.8,4.6-6.1
						l324.7-192c4.7-2.8,10.8-1.2,13.7,3.5l57.9,97.2c1.4,2.3,1.8,5,1.1,7.6c-0.6,2.6-2.3,4.8-4.6,6.1l-324.7,192
						C115.8,531.6,114,532.1,112.3,532.1z M68.1,428.4l47.7,80l307.5-181.8l-47.7-80L68.1,428.4z"/>
				</g>
			</g>
			<g>
				<g>
					<path fill="#A75BD8" d="M80.6,529.9c-0.8,0-1.7-0.1-2.5-0.3c-2.6-0.6-4.8-2.3-6.1-4.6l-36.5-61.5c-2.8-4.7-1.3-10.9,3.5-13.7
						l22.2-13.2c2.3-1.4,5-1.8,7.6-1.1c2.6,0.6,4.8,2.3,6.1,4.6l36.5,61.5c2.8,4.7,1.3,10.9-3.5,13.7l-22.3,13.2
						C84.2,529.4,82.4,529.9,80.6,529.9z M57.8,461.8l26.3,44.3l5.1-3l-26.3-44.3L57.8,461.8z"/>
				</g>
			</g>
			<g>
				<g>
					<path fill="#A75BD8" d="M65.8,556c-3.4,0-6.7-1.8-8.6-4.9L5.1,463.4c-1.4-2.3-1.8-5-1.1-7.6c0.7-2.6,2.3-4.8,4.6-6.1l22.7-13.5
						c4.7-2.8,10.9-1.2,13.7,3.5l52.1,87.8c1.4,2.3,1.8,5,1.1,7.6c-0.6,2.6-2.3,4.8-4.6,6.1l-22.7,13.5
						C69.3,555.6,67.6,556,65.8,556z M27.3,461.8l41.9,70.6l5.5-3.2l-41.9-70.6L27.3,461.8z"/>
				</g>
			</g>
			<g>
				<g>
					<path fill="#A75BD8" d="M450.5,362.2c-0.8,0-1.7-0.1-2.5-0.3c-2.6-0.6-4.8-2.3-6.1-4.6L359.2,218c-1.4-2.3-1.8-5-1.1-7.6
						s2.3-4.8,4.6-6.1l108.9-64.6c4.7-2.8,10.9-1.2,13.7,3.5L568,282.5c1.4,2.3,1.8,5,1.1,7.6c-0.6,2.6-2.3,4.8-4.6,6.1l-108.9,64.7
						C454.1,361.7,452.3,362.2,450.5,362.2z M381.5,216.4L454,338.5l91.7-54.5L473.1,162L381.5,216.4z"/>
				</g>
			</g>
			<g>
				<g>
					<path fill="#A75BD8" d="M563.9,304c-0.8,0-1.7-0.1-2.5-0.3c-2.6-0.6-4.8-2.3-6.1-4.6L463,143.8c-1.4-2.3-1.8-5-1.1-7.6
						c0.7-2.6,2.3-4.8,4.6-6.1l34.5-20.4c4.7-2.8,10.9-1.2,13.7,3.5l92.2,155.3c2.8,4.7,1.3,10.9-3.5,13.7L569,302.6
						C567.4,303.6,565.7,304,563.9,304z M485.3,142.2l82.1,138.2l17.3-10.3l-82-138.2L485.3,142.2z"/>
				</g>
			</g>
		</g>
		<g>
			<path fill="#A75BD8" d="M207,683.7c-1.2,0-2.3-0.2-3.5-0.6c-5.2-1.9-7.8-7.6-5.9-12.8L295.4,405c1.4-3.9,5.1-6.5,9.2-6.5
				c0.1,0,0.1,0,0.2,0c4,0,7.7,2.4,9.2,6.2l110.2,265.2c2.1,5.1-0.3,10.9-5.4,13.1c-5.1,2.1-10.9-0.3-13.1-5.4L305.4,435.9
				l-88.9,241.3C214.9,681.2,211.1,683.7,207,683.7z"/>
		</g>
	</g>
</g>
</svg>
